<svg data-v-423bf9ae="" xmlns="http://www.w3.org/2000/svg" viewBox="0 0 409 90" class="iconLeft"><!----><!----><!----><g data-v-423bf9ae="" id="08d9a8da-782c-4c00-8ef5-6ec5282cdc65" fill="#000000" transform="matrix(4.966871763892457,0,0,4.966871763892457,83.95599793771228,-3.5759078895594527)"><path d="M0.98 3.79L5.56 8.37L10.14 3.79L10.14 15.54C10.14 15.69 10.02 15.82 9.87 15.82L8.26 15.82C8.11 15.82 7.98 15.69 7.98 15.54L7.98 8.99L5.56 11.41L3.14 8.99L3.14 15.54C3.14 15.69 3.02 15.82 2.87 15.82L1.25 15.82C1.11 15.82 0.98 15.69 0.98 15.54ZM19.39 11.16C19.39 11.00 19.26 10.89 19.11 10.89L18.19 10.89L16.48 4.05L16.46 3.98C16.42 3.88 16.32 3.81 16.21 3.81L14.38 3.81C14.27 3.81 14.17 3.88 14.13 3.98L14.11 4.06L11.27 15.41C11.27 15.43 11.27 15.44 11.26 15.44L11.26 15.50C11.26 15.67 11.38 15.79 11.52 15.79L13.22 15.79C13.33 15.79 13.44 15.71 13.47 15.60C13.47 15.58 13.48 15.57 13.48 15.57L14.10 13.06L16.49 13.06L17.11 15.55L17.12 15.60C17.16 15.71 17.26 15.79 17.37 15.79L19.07 15.79C19.22 15.79 19.33 15.67 19.33 15.50L19.33 15.47L19.32 15.40L18.73 13.06L19.11 13.06C19.26 13.06 19.39 12.95 19.39 12.80ZM14.64 10.89L15.30 8.30L15.95 10.89ZM25.17 12.05C25.17 12.63 25.06 13.16 24.84 13.64C24.61 14.13 24.26 14.56 23.81 14.91C23.13 15.46 22.25 15.76 21.29 15.81C21.17 15.79 21.07 15.68 21.07 15.54L21.07 13.90C21.07 13.78 21.17 13.65 21.29 13.62L21.35 13.61C21.90 13.55 22.99 13.27 22.99 12.05L22.99 5.96L21.35 5.96C21.20 5.96 21.07 5.85 21.07 5.70L21.07 4.06C21.07 3.91 21.20 3.78 21.35 3.78L24.84 3.78C24.98 3.78 25.12 3.86 25.16 3.98L25.16 3.99C25.17 4.00 25.17 4.02 25.17 4.05ZM35.08 15.29C35.45 15.12 35.80 14.92 36.13 14.69L36.13 14.67L36.15 14.67C36.15 14.66 36.15 14.66 36.16 14.66C36.27 14.56 36.29 14.38 36.18 14.27L35.13 13.02C35.04 12.91 34.87 12.88 34.76 12.95C34.76 12.96 34.75 12.96 34.75 12.96C33.15 14.04 30.95 13.76 29.68 12.26C28.31 10.64 28.50 8.22 30.11 6.85C31.39 5.77 33.18 5.66 34.54 6.45C34.65 6.51 34.76 6.50 34.85 6.43L36.16 5.32C36.27 5.22 36.29 5.04 36.18 4.91L36.15 4.89L36.11 4.86C33.91 3.29 30.84 3.35 28.70 5.17C26.15 7.32 25.84 11.14 28 13.68C29.78 15.78 32.69 16.35 35.08 15.29ZM45.86 15.53C45.86 15.68 45.74 15.81 45.60 15.81L43.95 15.81C43.81 15.81 43.68 15.68 43.68 15.53L43.68 10.88L39.84 10.88L39.84 15.53C39.84 15.68 39.73 15.81 39.58 15.81L37.94 15.81C37.79 15.81 37.66 15.68 37.66 15.53L37.66 4.10C37.66 3.92 37.79 3.77 37.94 3.77L39.58 3.77C39.73 3.77 39.84 3.92 39.84 4.10L39.84 8.69L43.68 8.69L43.68 4.10C43.68 3.92 43.81 3.77 43.95 3.77L45.60 3.77C45.74 3.77 45.86 3.92 45.86 4.10ZM55.61 15.54C55.61 15.69 55.48 15.82 55.34 15.82L47.68 15.82C47.53 15.82 47.40 15.69 47.40 15.54L47.40 4.06C47.40 3.91 47.53 3.78 47.68 3.78L55.06 3.78C55.22 3.78 55.34 3.91 55.34 4.06L55.34 5.70C55.34 5.85 55.22 5.96 55.06 5.96L49.59 5.96L49.59 8.71L54.78 8.71C54.94 8.71 55.06 8.82 55.06 8.97L55.06 10.61C55.06 10.77 54.94 10.89 54.78 10.89L49.59 10.89L49.59 13.62L55.34 13.62C55.48 13.62 55.61 13.75 55.61 13.90ZM64.86 15.37L62.64 11.42L62.33 10.89L62.26 10.77C64.29 10.32 65.34 8.82 65.34 7.35C65.34 6.38 64.89 5.46 64.12 4.82C63.34 4.14 62.23 3.79 60.96 3.79L56.87 3.79C56.71 3.79 56.59 3.92 56.59 4.06L56.59 5.17L56.73 5.42L56.73 5.43L58.59 8.71L56.59 8.71L56.59 15.54C56.59 15.69 56.71 15.82 56.87 15.82L58.51 15.82C58.65 15.82 58.77 15.69 58.77 15.54L58.77 10.89L59.82 10.89L60.12 11.42L62.51 15.65L62.54 15.69C62.58 15.76 62.66 15.82 62.76 15.82L64.64 15.82C64.79 15.82 64.90 15.69 64.90 15.53C64.90 15.48 64.90 15.44 64.88 15.40ZM60.80 8.19L59.56 5.98L60.96 5.98C62.47 5.98 63.14 6.69 63.14 7.35C63.14 7.91 62.64 8.53 61.50 8.68C61.38 8.69 61.24 8.71 61.10 8.71Z"></path></g><defs data-v-423bf9ae=""><linearGradient data-v-423bf9ae="" gradientTransform="rotate(25)" id="92137a5d-2e36-4e8d-824c-be92d20d06f6" x1="0%" y1="0%" x2="100%" y2="0%"><stop data-v-423bf9ae="" offset="0%" style="stop-color: rgb(233, 13, 202); stop-opacity: 1;"></stop><stop data-v-423bf9ae="" offset="100%" style="stop-color: rgb(21, 54, 241); stop-opacity: 1;"></stop></linearGradient></defs><g data-v-423bf9ae="" id="98ac0a5f-e331-425d-8f00-0a0d0cda1476" transform="matrix(1.0588235294117647,0,0,1.0588235294117647,-18.44117647058824,-7.441176470588239)" stroke="none" fill="url(#92137a5d-2e36-4e8d-824c-be92d20d06f6)"><path d="M60 7.5H40C27.4 7.5 17.5 26.2 17.5 50S27.4 92.5 40 92.5h20c12.6 0 22.5-18.7 22.5-42.5S72.6 7.5 60 7.5zm-20 80c-9.5 0-17.5-17.2-17.5-37.5s8-37.5 17.5-37.5h9.3C42.2 19.6 37.5 33.6 37.5 50s4.7 30.4 11.8 37.5H40zm20 0c-9.5 0-17.5-17.2-17.5-37.5s8-37.5 17.5-37.5S77.5 29.7 77.5 50s-8 37.5-17.5 37.5z"></path><path d="M60 23.8c-6.3 0-11.3 11.5-11.3 26.3s5 26.2 11.3 26.2S71.3 64.7 71.3 50s-5-26.2-11.3-26.2zm0 50c-4.1 0-8.8-9.8-8.8-23.8s4.6-23.8 8.8-23.8S68.8 36 68.8 50 64.1 73.8 60 73.8z"></path></g><!----></svg>